Simulation
nRows=39
nColumns=15
endheader
time  TH_x TH_y TH_z SC_y  SC_z  SC_x  AC_y  AC_z  AC_x  GH_y  GH_z  GH_yy  EL_x  PS_y
1.5899999999999999  0.000000  0.000000  0.000000  -40.18716663749235  8.862011378722972  29.333506887060743  53.15659707213686  6.441796479802419  0.9472872967963512  -42.424968915539765  43.62050387340207  20.814189944596258  22.58662936994128  120.000000
1.6217999999999997  0.000000  0.000000  0.000000  -40.25745067497723  8.963208366671694  29.384899091538752  53.131864589655336  7.153545945848765  1.441050049513153  -42.72614989327875  44.08305025822259  20.915316057710086  22.64884586650167  120.000000
1.6535999999999997  0.000000  0.000000  0.000000  -40.26409091023571  9.071296737996104  29.39025973475426  53.04976900847039  7.80289233261594  1.9016868030364906  -43.01251405895162  44.42169208427634  21.126794948835563  22.677552852703766  120.000000
1.6853999999999998  0.000000  0.000000  0.000000  -40.231684691572475  9.16568238602414  29.371547914960388  52.94259797160397  8.389696236612595  2.319096672811803  -43.30485646807572  44.631661316593735  21.403121255083995  22.6906255152586  120.000000
1.7171999999999996  0.000000  0.000000  0.000000  -40.17798077116062  9.227628909385828  29.3219915676129  52.83667962643225  8.917810949604968  2.6858984525688236  -43.60569342486473  44.72258277584335  21.71033849826603  22.70035642726102  120.000000
1.7489999999999997  0.000000  0.000000  0.000000  -40.11844812817267  9.24186742702913  29.222378932109926  52.752472709295375  9.394153747265522  2.995509162950235  -43.9035525930487  44.705613546822576  22.03084541910012  22.71039254080081  120.000000
1.7807999999999997  0.000000  0.000000  0.000000  -40.069799395063704  9.196937440104447  29.06038892473674  52.70540506348393  9.826228792189916  3.24034608880322  -44.179473193571994  44.58449139715028  22.36076893773178  22.715378977559343  120.000000
1.8125999999999998  0.000000  0.000000  0.000000  -40.046380328308416  9.087389732154751  28.827512953543277  52.703678393629424  10.219988958974605  3.414248889464953  -44.408168339596756  44.359020600234096  22.701837817084556  22.70570101072599  120.000000
1.8443999999999998  0.000000  0.000000  0.000000  -40.0554873346982  8.915982766155848  28.51416565860705  52.74547504270224  10.578865911839666  3.515617672242233  -44.56160728424795  44.026899517239464  23.05338591397213  22.671804839967162  120.000000
1.8761999999999996  0.000000  0.000000  0.000000  -40.094080313561356  8.694588309330511  28.10742382580886  52.8178148558421  10.903271976695152  3.5493482910823917  -44.61344942767235  43.58428736171556  23.405711534966382  22.606606163804596  120.000000
1.9079999999999997  0.000000  0.000000  0.000000  -40.1480080946833  8.443574117440797  27.589253808876773  52.8970710816289  11.191203555201627  3.528034589167893  -44.542073107588116  43.02729987253653  23.73840887321749  22.506926763640205  120.000000
1.9397999999999997  0.000000  0.000000  0.000000  -40.19407209174001  8.18897437992794  26.936415340603844  52.95186365399508  11.440035747622813  3.471842121059338  -44.33225424704171  42.35383443674085  24.0235582219663  22.373260273372967  120.000000
1.9715999999999996  0.000000  0.000000  0.000000  -40.20485682032105  7.957225859323978  26.12241790529019  52.94882667796754  11.649312303699057  3.407036866308994  -43.9757742223073  41.565171148485746  24.23245766338479  22.208768052398735  120.000000
2.0033999999999996  0.000000  0.000000  0.000000  -40.154316751906705  7.7700989479172025  25.12101616120413  52.858504911996995  11.822797123441708  3.3639467625118757  -43.47150648108924  40.666413238686296  24.34257816178375  22.01840590763994  120.000000
2.0351999999999997  0.000000  0.000000  0.000000  -40.0220735160347  7.640800100081759  23.910112203325657  52.66009481436278  11.970003948046262  3.374078679939067  -42.82546085408318  39.665579012835614  24.34355685855515  21.8077122394572  120.000000
2.0669999999999997  0.000000  0.000000  0.000000  -39.796121733814005  7.57176976984389  22.475150949504933  52.34495529539177  12.106405498687586  3.467265655987376  -42.05073891879295  38.572398247205605  24.2401096922814  21.581432275493594  120.000000
2.0987999999999998  0.000000  0.000000  0.000000  -39.473467605300264  7.5553689706447145  20.812806480733528  51.9177870974862  12.250349762157004  3.668160339671401  -41.167630475628506  37.39663293003694  24.05179122889827  21.342292772650076  120.000000
2.1306  0.000000  0.000000  0.000000  -39.05927302620753  7.575695744531657  18.935484717838985  51.395562773681135  12.416915491171057  3.991135779038296  -40.20244557216655  36.147013074188855  23.810584432743017  21.090117160025315  120.000000
2.1624  0.000000  0.000000  0.000000  -38.56563812482505  7.6118261781850265  16.873817807652078  50.80428397412145  12.612516155012683  4.436552405078864  -39.185695513698334  34.83015861532419  23.55763955668945  20.82144899095943  120.000000
2.1941999999999995  0.000000  0.000000  0.000000  -38.00913793231996  7.641756485429155  14.676121412880324  50.173551722499944  12.832091226831466  4.98907669661599  -38.14923720324369  33.45046166855981  23.34045156684212  20.52961018662696  120.000000
2.2259999999999995  0.000000  0.000000  0.000000  -37.408770606638726  7.64554577876507  12.405678788633223  49.53217036179751  13.060138917697833  5.618445513318473  -37.12303869561199  32.01076087132159  23.21030447566997  20.205790894322742  120.000000
2.2577999999999996  0.000000  0.000000  0.000000  -36.78448439653598  7.6087644758020305  10.135253818611917  48.90450808340997  13.273940989274159  6.284143369863187  -36.1320541490733  30.513436319201116  23.219408483648756  19.841235670588482  120.000000
2.2895999999999996  0.000000  0.000000  0.000000  -36.1540486734793  7.523562334116602  7.937722159913885  48.30762711282185  13.449048964642502  6.940778795252314  -35.19464302288701  28.96261095225403  23.41823917500512  19.429525377046442  120.000000
2.3213999999999997  0.000000  0.000000  0.000000  -35.53165497355429  7.387454715508655  5.875781324969425  47.750677369490475  13.564711032950338  7.544773232663465  -34.32217839903798  27.3666520039048  23.85330886076071  18.968381273003818  120.000000
2.3531999999999997  0.000000  0.000000  0.000000  -34.928533673548216  7.202773068187342  3.993715475667991  47.23607641325283  13.606814624484064  8.062002090020846  -33.51933838117766  25.73972959196122  24.565183824928926  18.46160819174675  120.000000
2.385  0.000000  0.000000  0.000000  -34.35270834817874  6.975331668934747  2.31434056410869  46.76093892917788  13.568520372121785  8.471573448297793  -32.784241959183376  24.102544214720226  25.58672361239688  17.92052027088812  120.000000
2.4167999999999994  0.000000  0.000000  0.000000  -33.808564545399406  6.713510702778206  0.8418598086715317  46.31914446922733  13.44896508512963  8.765668749251137  -32.10893667469831  22.480698479735153  26.93967116078357  17.36356744816679  120.000000
2.4485999999999994  0.000000  0.000000  0.000000  -33.29668518362423  6.427752630444029  -0.43302261171366924  45.90314641069671  13.252760835875131  8.94772185397959  -31.480411116903266  20.900314421802168  28.629390795556038  16.814081565783848  120.000000
2.4803999999999995  0.000000  0.000000  0.000000  -32.81419427094906  6.129064510776263  -1.528747739212796  45.50601266013511  12.99194841046185  9.030123067382057  -30.882962335359665  19.382217072063188  30.638759057072033  16.296632405555464  120.000000
2.5121999999999995  0.000000  0.000000  0.000000  -32.35589644660573  5.8286134567975845  -2.465145339401143  45.1235452186531  12.684886789712346  9.029931628602501  -30.302374822626675  17.935012891358635  32.922525815397385  15.833044825644462  120.000000
2.5439999999999996  0.000000  0.000000  0.000000  -31.915481101911183  5.537686474770373  -3.25516835691886  44.755154946128414  12.352995470275607  8.962824306751763  -29.73060785315947  16.549756401787544  35.405662619601515  15.439417483980035  120.000000
2.5757999999999996  0.000000  0.000000  0.000000  -31.48655217795977  5.266811504574791  -3.904522887651752  44.4018878347479  12.019319360772037  8.840457411730943  -29.16855950803487  15.200550561904809  37.99012687767192  15.125353154594004  120.000000
2.6075999999999997  0.000000  0.000000  0.000000  -31.063322771396418  5.024996377452995  -4.416356750742878  44.06249106419016  11.705538801313788  8.670268438192627  -28.62544300047747  13.852255512502637  40.571149690331396  14.896097389602486  120.000000
2.6393999999999997  0.000000  0.000000  0.000000  -30.639964569558966  4.819013090098145  -4.796238074575859  43.729157330323254  11.4269962635777  8.454992483985468  -28.114723014197505  12.472313262958675  43.05799793864619  14.756013573079533  120.000000
2.6712  0.000000  0.000000  0.000000  -30.208908610958556  4.653060651354889  -5.056082397714527  43.385695683569594  11.188740125617024  8.193030450093337  -27.64823335511551  11.042829015278043  45.392417192559975  14.71109390960516  120.000000
2.7029999999999994  0.000000  0.000000  0.000000  -29.75973087907084  4.529143372735953  -5.215301040503907  43.01014746091982  10.984767886164338  7.880585574119518  -27.22972433525911  9.568922633616799  47.559602263534984  14.768802564265638  120.000000
2.7347999999999995  0.000000  0.000000  0.000000  -29.28059053843376  4.447359220455928  -5.297890086418637  42.5825226954072  10.80217696530988  7.515103776162893  -26.851319570411167  8.07989034929146  49.58681725248601  14.934883176711125  120.000000
2.7665999999999995  0.000000  0.000000  0.000000  -28.763712345458412  4.405552732810753  -5.326005655912904  42.095532010054804  10.629415555293411  7.099165619972325  -26.495767845505284  6.621661723020012  51.52887704661406  15.207704886527969  120.000000
2.7983999999999996  0.000000  0.000000  0.000000  -28.212669638681373  4.399254120061088  -5.312389502334358  41.562025444909544  10.462429628518233  6.643319209943642  -26.143951244907473  5.243385181931812  53.44688370586114  15.572313552708243  120.000000
